<svg width="42" height="48" viewBox="0 0 42 48" fill="none" xmlns="http://www.w3.org/2000/svg">
<path fill-rule="evenodd" clip-rule="evenodd" d="M26.727 9.6009C25.9354 9.6009 25.2945 8.97719 25.2945 8.20673C25.2945 7.43626 25.9354 6.81538 26.727 6.81538C27.5186 6.81538 28.1595 7.43626 28.1595 8.20673C28.1595 8.97719 27.5186 9.6009 26.727 9.6009ZM15.273 9.6009C14.4814 9.6009 13.8405 8.97719 13.8405 8.20673C13.8405 7.43626 14.4814 6.81538 15.273 6.81538C16.0646 6.81538 16.7055 7.43626 16.7055 8.20673C16.7055 8.97719 16.0646 9.6009 15.273 9.6009ZM27.5737 4.01856C31.6218 5.85582 34.3621 9.33562 34.3621 13.3178H7.63795C7.63795 9.33562 10.3782 5.85582 14.4292 4.01856L13.8927 3.23398L13.3592 2.46069L12.1703 0.722208C12.0253 0.507719 12.0862 0.219853 12.3036 0.0787419C12.524 -0.062369 12.8198 -0.00592461 12.9677 0.208564L14.2436 2.07123L14.78 2.85298L15.3223 3.64885C17.0476 2.99692 18.9731 2.63285 21 2.63285C23.0298 2.63285 24.9524 2.99692 26.6777 3.64885L27.2229 2.85298L29.0381 0.208564C29.1802 -0.00592461 29.4789 -0.0651912 29.6964 0.0787419C29.9167 0.219853 29.9776 0.507719 29.8297 0.722208L28.6408 2.46069L28.1073 3.23398L27.5737 4.01856ZM7.84383 15.1748H34.3621V35.6133C34.3621 37.2361 33.0108 38.5569 31.3405 38.5569H29.157C29.2324 38.8024 29.2759 39.0592 29.2759 39.3301V45.2145C29.2759 46.7526 27.9913 48 26.408 48C24.8277 48 23.546 46.7526 23.546 45.2145V39.3301C23.546 39.0592 23.5866 38.8024 23.6591 38.5569H18.3409C18.4134 38.8024 18.4569 39.0592 18.4569 39.3301V45.2145C18.4569 46.7526 17.1723 48 15.592 48C14.0116 48 12.727 46.7526 12.727 45.2145V39.3301C12.727 39.0592 12.7676 38.8024 12.843 38.5569H10.6624C8.99213 38.5569 7.63795 37.2361 7.63795 35.6133V15.1748H7.84383ZM2.86495 15.1748C4.44532 15.1748 5.72701 16.4222 5.72701 17.9603V29.8842C5.72701 31.4223 4.44532 32.6697 2.86495 32.6697C1.28169 32.6697 0 31.4223 0 29.8842V17.9603C0 16.4222 1.28169 15.1748 2.86495 15.1748ZM39.1379 15.1748C40.7183 15.1748 42 16.4222 42 17.9603V29.8842C42 31.4223 40.7183 32.6697 39.1379 32.6697C37.5547 32.6697 36.273 31.4223 36.273 29.8842V17.9603C36.273 16.4222 37.5547 15.1748 39.1379 15.1748Z" fill="white"/>
</svg>
