<?xml version="1.0" standalone="no"?>
<!DOCTYPE svg PUBLIC "-//W3C//DTD SVG 20010904//EN"
 "http://www.w3.org/TR/2001/REC-SVG-20010904/DTD/svg10.dtd">
<svg version="1.0" xmlns="http://www.w3.org/2000/svg"
 width="992.000000pt" height="992.000000pt" viewBox="0 0 992.000000 992.000000"
 preserveAspectRatio="xMidYMid meet">
<metadata>
Created by potrace 1.11, written by Peter Selinger 2001-2013
</metadata>
<g transform="translate(0.000000,992.000000) scale(0.100000,-0.100000)"
fill="#000000" stroke="none">
<path d="M5159 9918 c-1 -2 -2 -1021 -3 -2265 -1 -2005 1 -2262 14 -2265 13
-3 4401 -2 4440 1 13 1 15 260 15 2266 l0 2265 -2232 0 c-1228 0 -2234 -1
-2234 -2z"/>
<path d="M2267 7563 c-2 -5 -4 -548 -3 -1208 l1 -1200 1182 0 1182 0 0 1207 1
1208 -1180 0 c-648 0 -1181 -3 -1183 -7z"/>
<path d="M160 2335 l0 -2281 2234 0 2235 0 0 2278 c0 1253 -3 2279 -7 2280 -4
0 -1009 2 -2234 3 l-2228 1 0 -2281z"/>
<path d="M5159 4616 c-1 -1 -2 -785 -3 -1743 -1 -1737 -1 -1743 19 -1744 11 0
718 -1 1570 -2 990 -1 1554 2 1561 8 6 5 9 17 7 25 -3 9 -5 790 -6 1736 l-2
1719 -1572 1 c-865 0 -1574 0 -1574 0z"/>
</g>
</svg>
